<svg xmlns="http://www.w3.org/2000/svg" width="1000" height="1000"><svg xmlns="http://www.w3.org/2000/svg" xmlns:xlink="http://www.w3.org/1999/xlink" width="1000" height="1000" style="display:inline"><g clip-path="url(#a)"><path fill="#fff" d="M0 0h1000v1000H0z"/><svg xmlns="http://www.w3.org/2000/svg" xmlns:xlink="http://www.w3.org/1999/xlink" width="630" height="630" transform="translate(50 50)scale(1.42857)"><svg xmlns="http://www.w3.org/2000/svg" width="630" height="630" fill="none" viewBox="0 0 630 630"><path fill="#fff" d="M0 0h630v630H0z"/><mask id="b" width="460" height="371" x="49" y="138" fill="#000" maskUnits="userSpaceOnUse"><path fill="#fff" d="M49 138h460v371H49z"/><path d="m126.64 178.76-37.92 37.92L131.04 263h-17.68l-41.44-46 37.28-38.24zm-56.24-35.6V263H56.96V144.84zM152.818 263v-10.32h13.12v-63.6h-13.12v-10.32h23.36l2.48 19.92q4.88-10.4 11.84-16.08t18.4-5.68q3.519 0 6.24.56 2.8.48 5.68 1.28l-3.92 12q-2.64-.72-4.8-1.04-2.16-.4-4.96-.4-9.68 0-16.64 6.88t-11.12 20.8v35.68h17.12V263zm55.04-55.76v-18.32l1.36-10.16h11.6l-1.92 28.48zm82.737-28.48v73.6h23.76V263h-63.2v-10.64h26V189.4h-25.2v-10.64zm-10.72-39.44q4.48 0 7.12 2.72 2.72 2.72 2.72 6.64 0 4.08-2.72 6.88-2.64 2.72-7.12 2.72-4.24 0-6.96-2.72-2.72-2.8-2.72-6.88 0-3.92 2.72-6.64t6.96-2.72m92.658 114.4q9.68 0 15.28-3.6 5.68-3.68 5.68-9.76 0-3.84-1.44-6.64-1.36-2.8-5.68-5.04t-13.28-4.48q-8.72-2.16-15.2-4.96-6.4-2.88-10-7.44-3.52-4.56-3.52-11.84 0-7.12 3.999-12.24 4.081-5.2 11.281-7.92 7.2-2.8 16.72-2.8 10.16 0 17.68 2.72 7.6 2.64 12.88 6.56l-5.92 9.12q-4.8-3.28-10.56-5.36-5.76-2.16-13.92-2.16-9.92 0-14.08 3.12-4.16 3.04-4.16 7.92 0 3.68 2 6.16 2.079 2.4 6.96 4.4 4.88 1.92 13.44 4.24 8.24 2.16 14.32 5.2 6.159 3.04 9.6 8t3.44 12.8q0 8.96-5.12 14.56-5.12 5.52-13.28 8.08-8.08 2.48-17.12 2.48-11.44 0-19.52-3.28-8-3.36-13.441-8.08l7.681-8.88q4.96 4.08 11.36 6.64 6.48 2.48 13.92 2.48m80.737-110.16v46.72q4.96-6.64 12.16-9.92 7.28-3.36 14.72-3.36 12.32 0 18 6.56t5.68 18.24V263h-13.44v-60.88q0-7.6-3.52-11.04-3.52-3.52-11.04-3.52-4.8 0-9.12 2.16a33 33 0 0 0-7.76 5.36q-3.44 3.2-5.68 6.56V263h-13.44V145zM124.56 379.8l4.16 12.64q-5.36 1.68-11.44 2.08t-13.2.4q7.28 3.36 10.96 8.72 3.68 5.28 3.68 12.48 0 8.32-3.76 14.8t-10.88 10.16q-7.04 3.68-17.04 3.68-4.24 0-7.12-.4a36.6 36.6 0 0 1-5.44-1.2q-1.92 1.28-3.2 3.52-1.2 2.24-1.2 4.64 0 3.04 2.4 5.04t8.88 2h15.2q8.48 0 15.2 3.04 6.8 3.04 10.64 8.16 3.92 5.12 3.92 11.68 0 12.4-10.56 19.04-10.48 6.64-29.68 6.64-13.44 0-21.2-2.8-7.76-2.72-11.12-8.4-3.28-5.6-3.28-14.16h12.16q0 4.88 1.92 8.08t6.96 4.72q5.04 1.6 14.48 1.6 9.28 0 15.12-1.6 5.92-1.52 8.72-4.64 2.88-3.04 2.88-7.6 0-6-5.44-9.04t-13.6-3.04H78.64q-10.88 0-16.08-4.8-5.12-4.8-5.12-11.04 0-4.08 2.32-7.92 2.4-3.84 6.96-6.8-7.28-3.84-10.72-9.52t-3.44-13.76q0-8.56 4.24-15.12 4.24-6.64 11.84-10.4t17.52-3.76q10.64-.08 17.28-.88 6.64-.88 11.36-2.48 4.8-1.6 9.76-3.76m-38.4 16.96q-10.16 0-15.04 5.52-4.8 5.44-4.8 13.92 0 8.56 4.96 14.08t15.2 5.52q8.96 0 13.6-5.2 4.72-5.2 4.72-14.48 0-9.52-4.72-14.4-4.64-4.96-13.92-4.96m79.298-8v59.68q0 8.32 3.44 12t10.72 3.68q6.96 0 13.12-3.92 6.24-4 9.68-9.44v-62h13.44V473h-11.44l-1.12-11.36q-4.96 6.4-12.24 9.84-7.28 3.36-14.721 3.36-12.239 0-18.319-6.48-6-6.56-6-18.32v-61.28zM285.635 387q11.2 0 17.84 5.44 6.72 5.44 9.68 15.36 2.96 9.84 2.96 23.04 0 12.72-3.6 22.72-3.52 9.92-10.72 15.6t-18.16 5.68q-13.84 0-22.24-9.76v40.16l-13.44 1.68V388.76h11.44l1.12 11.76q4.64-6.48 11.04-10 6.48-3.52 14.08-3.52m-3.2 10.8q-6.96 0-12.32 4.24-5.28 4.16-8.72 9.28v41.76q3.28 4.88 8.24 7.76 5.04 2.8 11.04 2.8 10.48 0 15.76-8t5.28-24.88q0-11.04-2.08-18.32-2.08-7.36-6.32-10.96-4.24-3.68-10.88-3.68m128.338 70.96q-4.32 2.88-10.48 4.48t-12.08 1.6q-13.6 0-20.96-7.12t-7.36-18.32v-50.24h-19.36v-10.4h19.36v-19.12l13.44-1.6v20.72h29.12l-1.6 10.4h-27.52v50.08q0 7.04 3.68 10.72 3.76 3.68 12.4 3.68 4.72 0 8.72-1.12 3.999-1.12 7.44-2.88zm89.377-14.16q0 5.04 1.68 7.36t5.2 3.44l-3.28 9.44q-5.44-.72-9.52-3.44-4.08-2.8-5.92-8.4-4.56 5.84-11.36 8.88-6.8 2.96-15.04 2.96-12.64 0-19.92-7.12t-7.28-18.88q0-13.04 10.16-20t29.36-6.96h12.4v-7.04q0-9.12-5.36-12.88-5.28-3.84-14.72-3.84-4.16 0-9.76 1.04-5.6.96-12.16 3.28l-3.52-10.16q7.76-2.88 14.56-4.08t12.96-1.2q15.76 0 23.6 7.36 7.92 7.28 7.92 19.84zm-34.8 10q6.24 0 11.92-3.12 5.68-3.2 9.36-8.8V431h-12.16q-13.92 0-19.68 4.8-5.68 4.8-5.68 12.88 0 7.84 4 11.92 4.08 4 12.24 4"/></mask><path fill="#121212" d="m126.64 178.76-37.92 37.92L131.04 263h-17.68l-41.44-46 37.28-38.24zm-56.24-35.6V263H56.96V144.84zM152.818 263v-10.32h13.12v-63.6h-13.12v-10.32h23.36l2.48 19.92q4.88-10.4 11.84-16.08t18.4-5.68q3.519 0 6.24.56 2.8.48 5.68 1.28l-3.92 12q-2.64-.72-4.8-1.04-2.16-.4-4.96-.4-9.68 0-16.64 6.88t-11.12 20.8v35.68h17.12V263zm55.04-55.76v-18.32l1.36-10.16h11.6l-1.92 28.48zm82.737-28.48v73.6h23.76V263h-63.2v-10.64h26V189.4h-25.2v-10.64zm-10.72-39.44q4.48 0 7.12 2.72 2.72 2.72 2.72 6.64 0 4.08-2.72 6.88-2.64 2.72-7.12 2.72-4.24 0-6.96-2.72-2.72-2.8-2.72-6.88 0-3.92 2.72-6.64t6.96-2.72m92.658 114.4q9.68 0 15.28-3.6 5.68-3.68 5.68-9.76 0-3.84-1.44-6.64-1.36-2.8-5.68-5.04t-13.28-4.48q-8.72-2.16-15.2-4.96-6.4-2.88-10-7.44-3.52-4.56-3.52-11.84 0-7.12 3.999-12.24 4.081-5.2 11.281-7.92 7.2-2.8 16.72-2.8 10.16 0 17.68 2.72 7.6 2.64 12.88 6.56l-5.92 9.12q-4.8-3.28-10.56-5.36-5.76-2.16-13.92-2.16-9.92 0-14.08 3.12-4.16 3.04-4.16 7.92 0 3.68 2 6.16 2.079 2.4 6.96 4.4 4.88 1.92 13.44 4.24 8.24 2.16 14.32 5.2 6.159 3.04 9.6 8t3.44 12.8q0 8.96-5.12 14.56-5.12 5.52-13.28 8.08-8.08 2.48-17.12 2.48-11.44 0-19.52-3.28-8-3.36-13.441-8.08l7.681-8.88q4.96 4.08 11.36 6.64 6.48 2.48 13.92 2.48m80.737-110.16v46.72q4.96-6.64 12.16-9.92 7.28-3.36 14.72-3.36 12.32 0 18 6.56t5.68 18.24V263h-13.44v-60.88q0-7.6-3.52-11.04-3.52-3.52-11.04-3.52-4.8 0-9.12 2.16a33 33 0 0 0-7.76 5.36q-3.44 3.2-5.68 6.56V263h-13.44V145zM124.56 379.8l4.16 12.64q-5.36 1.68-11.44 2.08t-13.2.4q7.28 3.36 10.96 8.72 3.68 5.28 3.68 12.48 0 8.32-3.76 14.8t-10.88 10.16q-7.04 3.68-17.04 3.68-4.24 0-7.12-.4a36.6 36.6 0 0 1-5.44-1.2q-1.92 1.28-3.2 3.52-1.2 2.24-1.2 4.64 0 3.04 2.4 5.04t8.88 2h15.2q8.48 0 15.2 3.04 6.8 3.04 10.64 8.16 3.92 5.12 3.92 11.68 0 12.4-10.56 19.04-10.48 6.64-29.68 6.64-13.44 0-21.2-2.8-7.76-2.72-11.12-8.4-3.28-5.6-3.28-14.16h12.16q0 4.88 1.92 8.08t6.96 4.72q5.04 1.6 14.48 1.6 9.28 0 15.12-1.6 5.92-1.52 8.72-4.64 2.88-3.04 2.88-7.6 0-6-5.44-9.04t-13.6-3.04H78.64q-10.88 0-16.08-4.8-5.12-4.8-5.12-11.04 0-4.08 2.32-7.92 2.4-3.84 6.96-6.8-7.28-3.84-10.72-9.52t-3.44-13.76q0-8.56 4.24-15.12 4.24-6.64 11.84-10.4t17.52-3.76q10.64-.08 17.28-.88 6.64-.88 11.36-2.48 4.8-1.6 9.76-3.76m-38.4 16.96q-10.16 0-15.04 5.52-4.8 5.44-4.8 13.92 0 8.56 4.96 14.08t15.2 5.52q8.96 0 13.6-5.2 4.72-5.2 4.72-14.48 0-9.52-4.72-14.4-4.64-4.96-13.92-4.96m79.298-8v59.68q0 8.32 3.44 12t10.72 3.68q6.96 0 13.12-3.92 6.24-4 9.68-9.44v-62h13.44V473h-11.44l-1.12-11.36q-4.96 6.4-12.24 9.84-7.28 3.36-14.721 3.36-12.239 0-18.319-6.48-6-6.56-6-18.32v-61.28zM285.635 387q11.2 0 17.84 5.44 6.72 5.44 9.68 15.36 2.96 9.84 2.96 23.04 0 12.72-3.6 22.72-3.52 9.92-10.72 15.6t-18.16 5.68q-13.84 0-22.24-9.76v40.16l-13.44 1.68V388.76h11.44l1.12 11.76q4.64-6.48 11.04-10 6.48-3.52 14.08-3.52m-3.2 10.8q-6.96 0-12.32 4.24-5.28 4.16-8.72 9.28v41.76q3.28 4.88 8.24 7.76 5.04 2.8 11.04 2.8 10.48 0 15.76-8t5.28-24.88q0-11.04-2.08-18.32-2.08-7.36-6.32-10.96-4.24-3.68-10.88-3.68m128.338 70.96q-4.32 2.88-10.48 4.48t-12.08 1.6q-13.6 0-20.96-7.12t-7.36-18.32v-50.24h-19.36v-10.4h19.36v-19.12l13.44-1.6v20.72h29.12l-1.6 10.4h-27.52v50.08q0 7.04 3.68 10.72 3.76 3.68 12.4 3.68 4.72 0 8.72-1.12 3.999-1.12 7.44-2.88zm89.377-14.16q0 5.04 1.68 7.36t5.2 3.44l-3.28 9.44q-5.44-.72-9.52-3.44-4.08-2.8-5.92-8.4-4.56 5.84-11.36 8.88-6.8 2.96-15.04 2.96-12.64 0-19.92-7.12t-7.28-18.88q0-13.04 10.16-20t29.36-6.96h12.4v-7.04q0-9.12-5.36-12.88-5.28-3.84-14.72-3.84-4.16 0-9.76 1.04-5.6.96-12.16 3.28l-3.52-10.16q7.76-2.88 14.56-4.08t12.96-1.2q15.76 0 23.6 7.36 7.92 7.28 7.92 19.84zm-34.8 10q6.24 0 11.92-3.12 5.68-3.2 9.36-8.8V431h-12.16q-13.92 0-19.68 4.8-5.68 4.8-5.68 12.88 0 7.84 4 11.92 4.08 4 12.24 4"/><path fill="#121212" d="m126.64 178.76.707.707 1.707-1.707h-2.414zm-37.92 37.92-.707-.707-.676.676.645.706zM131.04 263v1h2.268l-1.53-1.675zm-17.68 0-.743.669.298.331h.445zm-41.44-46-.716-.698-.654.671.627.696zm37.28-38.24v-1h-.422l-.294.302zm-38.8-35.6h1v-1.133l-1.124.141zm0 119.84v1h1v-1zm-13.44 0h-1v1h1zm0-118.16-.124-.992-.876.109v.883zm69.68 33.92-.707-.707-37.92 37.92.707.707.707.707 37.92-37.92zm-37.92 37.92-.738.675 42.32 46.32.738-.675.738-.675-42.32-46.32zM131.04 263v-1h-17.68v2h17.68zm-17.68 0 .743-.669-41.44-46-.743.669-.743.669 41.44 46zm-41.44-46 .716.698 37.28-38.24-.716-.698-.716-.698-37.28 38.24zm37.28-38.24v1h17.44v-2H109.2zm-38.8-35.6h-1V263h2V143.16zm0 119.84v-1H56.96v2H70.4zm-13.44 0h1V144.84h-2V263zm0-118.16.124.992 13.44-1.68-.124-.992-.124-.992-13.44 1.68zM152.818 263h-1v1h1zm0-10.32v-1h-1v1zm13.12 0v1h1v-1zm0-63.6h1v-1h-1zm-13.12 0h-1v1h1zm0-10.32v-1h-1v1zm23.36 0 .992-.124-.109-.876h-.883zm2.48 19.92-.993.124.428 3.434 1.47-3.133zm11.84-16.08.632.775zm24.64-5.12-.202.979.016.004.017.003zm5.68 1.28.95.311.325-.995-1.008-.28zm-3.92 12-.264.965.919.25.295-.904zm-4.8-1.04-.183.983.018.004.018.002zM179.378 217l-.959-.286-.041.14V217zm0 35.68h-1v1h1zm17.12 0h1v-1h-1zm0 10.32v1h1v-1zm11.36-55.76h-1v1h1zm0-18.32-.992-.133-.008.066v.067zm1.36-10.16v-1h-.876l-.116.867zm11.6 0 .997.067.072-1.067h-1.069zm-1.92 28.48v1h.934l.063-.933zM152.818 263h1v-10.32h-2V263zm0-10.32v1h13.12v-2h-13.12zm13.12 0h1v-63.6h-2v63.6zm0-63.6v-1h-13.12v2h13.12zm-13.12 0h1v-10.32h-2v10.32zm0-10.32v1h23.36v-2h-23.36zm23.36 0-.993.124 2.48 19.92.993-.124.992-.124-2.48-19.92zm2.48 19.92.905.425c3.207-6.834 7.071-12.061 11.567-15.73l-.632-.775-.633-.775c-4.784 3.904-8.813 9.398-12.113 16.43zm11.84-16.08.632.775c4.417-3.605 10.307-5.455 17.768-5.455v-2c-7.793 0-14.17 1.937-19.033 5.905zm18.4-5.68v1c2.295 0 4.306.183 6.038.539l.202-.979.201-.979c-1.894-.391-4.044-.581-6.441-.581zm6.24.56-.169.986a57 57 0 0 1 5.581 1.258l.268-.964.267-.964a59 59 0 0 0-5.779-1.302zm5.68 1.28-.951-.311-3.92 12 .951.311.95.311 3.92-12zm-3.92 12 .263-.965q-2.685-.733-4.917-1.064l-.146.989-.147.989q2.088.308 4.683 1.016zm-4.8-1.04.182-.983c-1.514-.281-3.23-.417-5.142-.417v2q2.73.002 4.777.383zm-4.96-.4v-1c-6.72 0-12.519 2.399-17.344 7.169l.704.711.703.711c4.455-4.404 9.75-6.591 15.937-6.591zm-16.64 6.88-.704-.711c-4.803 4.748-8.575 11.856-11.375 21.225l.959.286.958.286c2.746-9.191 6.388-15.95 10.865-20.375zm-11.12 20.8h-1v35.68h2V217zm0 35.68v1h17.12v-2h-17.12zm17.12 0h-1V263h2v-10.32zm0 10.32v-1h-43.68v2h43.68zm11.36-55.76h1v-18.32h-2v18.32zm0-18.32.991.133 1.36-10.16-.991-.133-.992-.133-1.36 10.16zm1.36-10.16v1h11.6v-2h-11.6zm11.6 0-.998-.067-1.92 28.48.998.067.997.067 1.92-28.48zm-1.92 28.48v-1h-11.04v2h11.04zm71.697-28.48h1v-1h-1zm0 73.6h-1v1h1zm23.76 0h1v-1h-1zm0 10.64v1h1v-1zm-63.2 0h-1v1h1zm0-10.64v-1h-1v1zm26 0v1h1v-1zm0-62.96h1v-1h-1zm-25.2 0h-1v1h1zm0-10.64v-1h-1v1zm35.04-36.72-.718.696.006.006.005.005zm0 13.52-.717-.697-.001.001zm-14.08 0-.717.697.005.005.005.005zm0-13.52-.707-.707zm17.68 36.72h-1v73.6h2v-73.6zm0 73.6v1h23.76v-2h-23.76zm23.76 0h-1V263h2v-10.64zm0 10.64v-1h-63.2v2h63.2zm-63.2 0h1v-10.64h-2V263zm0-10.64v1h26v-2h-26zm26 0h1V189.4h-2v62.96zm0-62.96v-1h-25.2v2h25.2zm-25.2 0h1v-10.64h-2v10.64zm0-10.64v1h38.64v-2h-38.64zm27.92-39.44v1c2.769 0 4.865.832 6.402 2.416l.718-.696.718-.696c-1.983-2.043-4.634-3.024-7.838-3.024zm7.12 2.72-.707.707c1.622 1.622 2.427 3.579 2.427 5.933h2c0-2.873-1.008-5.342-3.013-7.347zm2.72 6.64h-1c0 2.473-.814 4.512-2.437 6.183l.717.697.717.697c2.004-2.063 3.003-4.61 3.003-7.577zm-2.72 6.88-.718-.696c-1.537 1.584-3.633 2.416-6.402 2.416v2c3.204 0 5.855-.981 7.838-3.024zm-7.12 2.72v-1c-2.591 0-4.647-.821-6.253-2.427l-.707.707-.707.707c2.021 2.021 4.605 3.013 7.667 3.013zm-6.96-2.72.717-.697c-1.623-1.671-2.437-3.71-2.437-6.183h-2c0 2.967.999 5.514 3.003 7.577zm-2.72-6.88h1c0-2.354.805-4.311 2.427-5.933l-.707-.707-.707-.707c-2.005 2.005-3.013 4.474-3.013 7.347zm2.72-6.64.707.707c1.606-1.606 3.662-2.427 6.253-2.427v-2c-3.062 0-5.646.992-7.667 3.013zm114.898 108.08.54.841.003-.002zm4.24-16.4-.9.437.005.01.005.01zm-5.68-5.04.46-.888zm-13.28-4.48.242-.97-.002-.001zm-15.2-4.96-.411.912.007.003.007.003zm-10-7.44-.792.611.007.009zm.479-24.08-.786-.617-.002.001zm11.281-7.92.353.936.009-.004zm34.4-.08-.341.94.012.005zm12.88 6.56.838.544.512-.787-.754-.56zm-5.92 9.12-.565.826.846.577.557-.859zm-10.56-5.36-.352.936.012.005zm-28 .96.59.807.01-.007zm-2.16 14.08-.779.628.011.014.012.013zm6.96 4.4-.38.925.013.006zm13.44 4.24-.262.965.008.002zm14.32 5.2-.448.894.005.003zm9.6 8 .821-.57zm-1.68 27.36.733.68.005-.005zm-13.28 8.08.293.956.006-.002zm-36.64-.8-.388.922.011.005zm-13.441-8.08-.756-.654-.653.755.754.654zm7.681-8.88.635-.772-.754-.62-.638.738zm11.36 6.64-.372.928.007.003.007.003zm13.92 2.48v1c6.562 0 11.868-1.218 15.82-3.759l-.54-.841-.541-.841c-3.515 2.259-8.396 3.441-14.739 3.441zm15.28-3.6.543.839c4.033-2.613 6.137-6.164 6.137-10.599h-2c0 3.671-1.684 6.627-5.224 8.921zm5.68-9.76h1c0-2.685-.504-5.061-1.551-7.097l-.889.457-.89.457c.873 1.698 1.33 3.748 1.33 6.183zm-1.44-6.64.899-.437c-1.04-2.142-3.149-3.95-6.119-5.491l-.46.888-.461.888c2.79 1.446 4.468 2.998 5.241 4.589zm-5.68-5.04.46-.888c-2.986-1.548-7.504-3.064-13.498-4.562l-.242.97-.243.97c5.952 1.488 10.288 2.959 13.062 4.398zm-13.28-4.48.24-.971c-5.774-1.43-10.786-3.067-15.044-4.907l-.396.918-.397.918q6.575 2.839 15.356 5.013zm-15.2-4.96.41-.912c-4.15-1.868-7.344-4.257-9.626-7.148l-.784.62-.785.62c2.518 3.189 5.991 5.76 10.374 7.732zm-10-7.44.791-.611c-2.179-2.823-3.311-6.538-3.311-11.229h-2c0 5.015 1.214 9.194 3.728 12.451zm-3.52-11.84h1c0-4.546 1.272-8.404 3.788-11.624l-.789-.616-.788-.616c-2.817 3.607-4.211 7.909-4.211 12.856zm3.999-12.24.787.617c2.59-3.301 6.189-5.842 10.847-7.602l-.353-.935-.354-.935c-4.942 1.867-8.863 4.605-11.713 8.238zm11.281-7.92.362.932c4.661-1.813 10.107-2.732 16.358-2.732v-2c-6.443 0-12.144.947-17.083 2.868zm16.72-2.8v1c6.687 0 12.46.896 17.339 2.66l.341-.94.34-.94c-5.148-1.862-11.161-2.78-18.02-2.78zm17.68 2.72-.329.945c4.992 1.733 9.19 3.877 12.612 6.418l.597-.803.596-.803c-3.618-2.686-8.006-4.915-13.148-6.702zm12.88 6.56-.839-.544-5.92 9.12.839.544.838.544 5.92-9.12zm-5.92 9.12.564-.826q-4.912-3.354-10.785-5.475l-.339.941-.34.941q5.647 2.039 10.335 5.245zm-10.56-5.36.351-.936c-3.983-1.494-8.748-2.224-14.271-2.224v2c5.356 0 9.871.71 13.568 2.096zm-13.92-2.16v-1c-6.662 0-11.636 1.036-14.68 3.32l.6.8.6.8c2.501-1.876 6.914-2.92 13.48-2.92zm-14.08 3.12-.591-.807c-3.014 2.202-4.569 5.134-4.569 8.727h2c0-2.914 1.217-5.262 3.75-7.113zm-4.16 7.92h-1c0 2.645.723 4.93 2.221 6.788l.779-.628.778-.628c-1.168-1.448-1.778-3.27-1.778-5.532zm2 6.16-.756.655c1.535 1.772 4.022 3.312 7.336 4.67l.38-.925.379-.925c-3.193-1.309-5.346-2.702-6.584-4.13zm6.96 4.4-.367.931c3.303 1.299 7.823 2.723 13.545 4.274l.262-.965.261-.965c-5.692-1.543-10.132-2.945-13.335-4.206zm13.44 4.24-.254.967q8.161 2.142 14.126 5.127l.448-.894.447-.894c-4.129-2.065-8.97-3.82-14.514-5.273zm14.32 5.2-.443.897c3.976 1.962 7.037 4.524 9.221 7.673l.822-.57.821-.57c-2.402-3.464-5.741-6.236-9.979-8.327zm9.6 8-.822.57c2.147 3.096 3.262 7.147 3.262 12.23h2c0-5.37-1.179-9.852-3.619-13.37zm3.44 12.8h-1c0 5.772-1.643 10.369-4.859 13.885l.739.675.738.675c3.611-3.95 5.382-9.06 5.382-15.235zm-5.12 14.56-.734-.68c-3.279 3.536-7.549 6.144-12.846 7.806l.3.954.299.954c5.583-1.751 10.167-4.53 13.714-8.354zm-13.28 8.08-.294-.956q-7.926 2.435-16.826 2.436v2q9.18.001 17.413-2.524zm-17.12 2.48v-1c-7.536 0-13.908-1.081-19.144-3.207l-.376.927-.377.927c5.537 2.247 12.179 3.353 19.897 3.353zm-19.52-3.28.387-.922c-5.255-2.207-9.64-4.849-13.172-7.913l-.656.755-.655.755c3.721 3.229 8.297 5.974 13.708 8.247zm-13.441-8.08.757.654 7.68-8.88-.756-.654-.757-.654-7.68 8.88zm7.681-8.88-.636.772q5.09 4.184 11.624 6.796l.372-.928.371-.928q-6.266-2.508-11.096-6.484zm11.36 6.64-.358.934q6.665 2.548 14.278 2.546v-2c-4.847 0-9.365-.807-13.563-2.414zm94.657-107.68h1v-1.113l-1.107.119zm0 46.72h-1v3.01l1.801-2.412zm12.16-9.92.415.91.004-.002zm32.72 3.2.756-.655zm5.68 79.44v1h1v-1zm-13.44 0h-1v1h1zm-3.52-71.92-.707.707.008.008zm-20.16-1.36-.447-.894zm-7.76 5.36.681.732zm-5.68 6.56-.832-.555-.168.252v.303zm0 61.36v1h1v-1zm-13.44 0h-1v1h1zm0-118-.107-.994-.893.095V145zm13.44-1.44h-1v46.72h2v-46.72zm0 46.72.801.598c3.211-4.298 7.134-7.494 11.774-9.608l-.415-.91-.415-.91c-4.96 2.26-9.144 5.677-12.546 10.232zm12.16-9.92.419.908c4.732-2.184 9.497-3.268 14.301-3.268v-2c-5.116 0-10.165 1.156-15.139 3.452zm14.72-3.36v1c8.049 0 13.717 2.141 17.244 6.215l.756-.655.756-.655C494.86 178.233 488.528 176 480.15 176zm18 6.56-.756.655c3.582 4.136 5.436 9.955 5.436 17.585h2c0-7.943-1.933-14.285-5.924-18.895zm5.68 18.24h-1V263h2v-61.2zm0 61.2v-1h-13.44v2h13.44zm-13.44 0h1v-60.88h-2V263zm0-60.88h1c0-5.192-1.199-9.193-3.821-11.755l-.699.715-.699.715c2.071 2.024 3.219 5.384 3.219 10.325zm-3.52-11.04.707-.707c-2.611-2.611-6.602-3.813-11.747-3.813v2c4.882 0 8.251 1.145 10.333 3.227zm-11.04-3.52v-1c-3.356 0-6.549.757-9.567 2.266l.447.894.447.894a19.1 19.1 0 0 1 8.673-2.054zm-9.12 2.16-.447-.894a34 34 0 0 0-7.994 5.522l.681.732.681.732a32 32 0 0 1 7.526-5.198zm-7.76 5.36-.681-.732c-2.341 2.178-4.288 4.423-5.831 6.737l.832.555.832.555c1.444-2.166 3.284-4.294 5.529-6.383zm-5.68 6.56h-1V263h2v-61.36zm0 61.36v-1h-13.44v2h13.44zm-13.44 0h1V145h-2v118zm0-118 .107.994 13.44-1.44-.107-.994-.107-.994-13.44 1.44zM124.56 379.8l.95-.313-.343-1.042-1.006.438zm4.16 12.64.299.954.968-.303-.317-.964zm-11.44 2.08-.066-.998zm-13.2.4v-1l-.419 1.908zm10.96 8.72-.824.566.004.006zm-.08 27.28.865.502zm-10.88 10.16-.459-.888-.004.002zm-24.16 3.28-.141.99h.003zm-5.44-1.2.29-.957-.452-.137-.393.262zm-3.2 3.52-.868-.496-.007.012-.007.012zm1.2 9.68-.64.768zm39.28 5.04-.412.911.004.002zm10.64 8.16-.8.6.006.008zm-6.64 30.72-.532-.847-.003.002zm-50.88 3.84.34-.941-.01-.003zm-11.12-8.4-.863.505.002.004zm-3.28-14.16v-1h-1v1zm12.16 0h1v-1h-1zm1.92 8.08-.858.514zm6.96 4.72.303-.953-.007-.002-.007-.002zm29.6 0-.249-.969-.007.002-.008.003zm8.72-4.64-.726-.688-.009.01-.009.01zm-2.56-16.64-.488.873zm-44.72-7.84-.684.73.006.005zm-2.8-18.96-.848-.53-.004.006-.004.007zm6.96-6.8.544.839 1.43-.928-1.508-.795zM56 429.96l.855-.518zm.8-28.88.84.543.003-.005zm11.84-10.4.443.896zm17.52-3.76v1h.008zm17.28-.88.12.993.011-.002zm11.36-2.48-.316-.949-.005.002zm-43.68 18.72-.75-.662zm.16 28 .744-.668zm28.8.32-.74-.672-.006.006zm0-28.88-.73.683.005.006.006.006zm24.48-21.92-.95.313 4.16 12.64.95-.313.95-.313-4.16-12.64zm4.16 12.64-.299-.954q-5.237 1.642-11.207 2.036l.066.998.066.998q6.19-.407 11.673-2.124zm-11.44 2.08-.066-.998q-6.042.398-13.134.398v2q7.147 0 13.266-.402zm-13.2.4-.419.908c4.728 2.182 8.224 4.984 10.555 8.378l.824-.566.824-.566c-2.576-3.753-6.386-6.764-11.365-9.062zm10.96 8.72-.82.572c2.322 3.332 3.5 7.287 3.5 11.908h2c0-4.979-1.276-9.344-3.86-13.052zm3.68 12.48h-1c0 5.39-1.216 10.147-3.625 14.298l.865.502.865.502c2.605-4.489 3.895-9.599 3.895-15.302zm-3.76 14.8-.865-.502c-2.404 4.144-5.884 7.401-10.474 9.774l.459.888.459.888c4.904-2.534 8.677-6.05 11.286-10.546zm-10.88 10.16-.463-.886c-4.518 2.361-10.03 3.566-16.577 3.566v2c6.787 0 12.635-1.249 17.503-3.794zm-17.04 3.68v-1c-2.8 0-5.124-.132-6.982-.39l-.138.99-.138.99c1.981.276 4.404.41 7.258.41zm-7.12-.4.141-.99a35.6 35.6 0 0 1-5.291-1.167l-.29.957-.29.957a38 38 0 0 0 5.589 1.233zm-5.44-1.2-.555-.832c-1.423.949-2.592 2.244-3.513 3.856l.868.496.868.496c.786-1.374 1.75-2.426 2.887-3.184zm-3.2 3.52-.882-.472c-.873 1.63-1.318 3.338-1.318 5.112h2c0-1.426.355-2.811 1.082-4.168zm-1.2 4.64h-1c0 2.333.94 4.291 2.76 5.808l.64-.768.64-.768c-1.38-1.15-2.04-2.551-2.04-4.272zm2.4 5.04-.64.768c1.892 1.577 5.175 2.232 9.52 2.232v-2c-4.295 0-6.933-.679-8.24-1.768zm8.88 2v1h15.2v-2h-15.2zm15.2 0v1c5.532 0 10.455.991 14.788 2.951l.412-.911.412-.911c-4.627-2.094-9.838-3.129-15.612-3.129zm15.2 3.04-.408.913c4.404 1.969 7.806 4.59 10.248 7.847l.8-.6.8-.6c-2.678-3.57-6.369-6.388-11.032-8.473zm10.64 8.16-.794.608c2.477 3.236 3.714 6.914 3.714 11.072h2c0-4.589-1.377-8.697-4.126-12.288zm3.92 11.68h-1c0 7.92-3.341 13.948-10.092 18.193l.532.847.532.847c7.329-4.609 11.028-11.274 11.028-19.887zm-10.56 19.04-.535-.845c-6.762 4.284-16.439 6.485-29.145 6.485v2c12.894 0 23.003-2.226 30.215-6.795zm-29.68 6.64v-1c-8.908 0-15.843-.93-20.86-2.741l-.34.941-.34.941c5.33 1.922 12.528 2.859 21.54 2.859zm-21.2-2.8.33-.944c-5.007-1.755-8.496-4.427-10.59-7.965l-.86.509-.86.509c2.386 4.036 6.31 6.963 11.65 8.835zm-11.12-8.4.863-.505c-2.073-3.539-3.143-8.071-3.143-13.655h-2c0 5.829 1.116 10.737 3.417 14.665zm-3.28-14.16v1h12.16v-2H50.48zm12.16 0h-1c0 3.38.665 6.265 2.063 8.594l.857-.514.858-.514c-1.163-1.938-1.778-4.439-1.778-7.566zm1.92 8.08-.858.514c1.453 2.421 4.029 4.108 7.53 5.163l.288-.957.289-.957c-3.22-.971-5.284-2.431-6.391-4.277zm6.96 4.72-.303.953c3.507 1.113 8.454 1.647 14.783 1.647v-2c-6.258 0-10.963-.533-14.177-1.553zm14.48 1.6v1c6.234 0 11.372-.536 15.384-1.636l-.264-.964-.264-.964c-3.775 1.034-8.717 1.564-14.856 1.564zm15.12-1.6.249.969c4.055-1.042 7.169-2.661 9.215-4.941l-.744-.668-.744-.668c-1.687 1.88-4.386 3.354-8.225 4.339zm8.72-4.64.726.688c2.112-2.23 3.154-5.017 3.154-8.288h-2c0 2.809-.878 5.089-2.606 6.912zm2.88-7.6h1c0-2.156-.491-4.093-1.503-5.776-1.012-1.681-2.512-3.054-4.449-4.137l-.488.873-.488.873c1.689.944 2.909 2.09 3.711 3.423.801 1.33 1.217 2.9 1.217 4.744zm-5.44-9.04.488-.873c-3.815-2.132-8.528-3.167-14.088-3.167v2c5.32 0 9.674.991 13.112 2.913zm-13.6-3.04v-1H78.64v2h15.04zm-15.04 0v-1c-7.133 0-12.197-1.577-15.402-4.535l-.678.735-.678.735c3.729 3.442 9.384 5.065 16.758 5.065zm-16.08-4.8.684-.73c-3.24-3.036-4.804-6.462-4.804-10.31h-2c0 4.472 1.849 8.406 5.436 11.77zm-5.12-11.04h1c0-2.52.714-4.983 2.176-7.403l-.856-.517-.856-.517c-1.631 2.7-2.464 5.517-2.464 8.437zm2.32-7.92.848.53c1.509-2.414 3.715-4.582 6.657-6.491l-.545-.839-.544-.839c-3.139 2.037-5.573 4.403-7.264 7.109zm6.96-6.8.466-.884c-4.73-2.496-8.151-5.556-10.33-9.154l-.856.518-.855.518c2.407 3.975 6.133 7.262 11.109 9.886zM56 429.96l.855-.518c-2.18-3.6-3.295-7.998-3.295-13.242h-2c0 5.53 1.178 10.304 3.585 14.278zm-3.44-13.76h1c0-5.533 1.368-10.381 4.08-14.577l-.84-.543-.84-.543c-2.941 4.551-4.4 9.783-4.4 15.663zm4.24-15.12.843.538c2.721-4.261 6.524-7.609 11.44-10.042l-.443-.896-.443-.896c-5.217 2.581-9.308 6.166-12.24 10.758zm11.84-10.4.443.896c4.908-2.427 10.591-3.656 17.077-3.656v-2c-6.741 0-12.737 1.278-17.963 3.864zm17.52-3.76.008 1c7.111-.054 12.913-.348 17.392-.887l-.12-.993-.12-.993c-4.374.527-10.093.82-17.167.873zm17.28-.88.131.991c4.471-.592 8.325-1.431 11.55-2.524l-.321-.947-.321-.947c-3.068 1.04-6.788 1.855-11.17 2.436zm11.36-2.48.316.949a119 119 0 0 0 9.843-3.792l-.399-.917-.399-.917a117 117 0 0 1-9.677 3.728zm-28.64 13.2v-1c-6.947 0-12.282 1.891-15.79 5.858l.75.662.75.662c2.999-3.393 7.69-5.182 14.29-5.182zm-15.04 5.52-.75-.662c-3.388 3.84-5.05 8.729-5.05 14.582h2c0-5.453 1.538-9.845 4.55-13.258zm-4.8 13.92h-1c0 5.913 1.72 10.857 5.216 14.748l.744-.668.744-.668c-3.117-3.469-4.704-7.912-4.704-13.412zm4.96 14.08-.744.668c3.56 3.962 8.945 5.852 15.944 5.852v-2c-6.655 0-11.403-1.79-14.456-5.188zm15.2 5.52v1c6.172 0 11.012-1.798 14.346-5.534l-.746-.666-.746-.666c-2.853 3.197-7.079 4.866-12.854 4.866zm13.6-5.2.74.672c3.362-3.703 4.98-8.798 4.98-15.152h-2c0 6.02-1.529 10.578-4.46 13.808zm4.72-14.48h1c0-6.501-1.612-11.591-5.001-15.095l-.719.695-.719.695c2.905 3.003 4.439 7.512 4.439 13.705zm-4.72-14.4.73-.683c-3.344-3.575-8.291-5.277-14.65-5.277v2c6.015 0 10.347 1.604 13.19 4.643zm65.378-12.96h1v-1h-1zm3.44 71.68.73-.683zm23.84-.24.536.844.003-.002zm9.68-9.44.845.534.155-.244v-.29zm0-62v-1h-1v1zm13.44 0h1v-1h-1zm0 84.24v1h1v-1zm-11.44 0-.996.098.089.902h.907zm-1.12-11.36.995-.098-.247-2.5-1.539 1.985zm-12.24 9.84.419.908.008-.004zm-33.04-3.12-.738.675.008.009zm-6-79.6v-1h-1v1zm13.44 0h-1v59.68h2v-59.68zm0 59.68h-1c0 5.645 1.16 9.956 3.709 12.683l.731-.683.73-.683c-2.037-2.179-3.17-5.869-3.17-11.317zm3.44 12-.731.683c2.554 2.732 6.445 3.997 11.451 3.997v-2c-4.702 0-7.957-1.188-9.99-3.363zm10.72 3.68v1c4.839 0 9.398-1.366 13.656-4.076l-.536-.844-.537-.844c-3.955 2.517-8.143 3.764-12.583 3.764zm13.12-3.92.539.842c4.265-2.734 7.603-5.98 9.986-9.748l-.845-.534-.846-.534c-2.204 3.485-5.319 6.532-9.374 9.132zm9.68-9.44h1v-62h-2v62zm0-62v1h13.44v-2h-13.44zm13.44 0h-1V473h2v-84.24zm0 84.24v-1h-11.44v2h11.44zm-11.44 0 .995-.098-1.12-11.36-.995.098-.996.098 1.12 11.36zm-1.12-11.36-.791-.613c-3.211 4.143-7.167 7.323-11.877 9.549l.428.904.427.904c4.996-2.361 9.2-5.741 12.603-10.131zm-12.24 9.84-.42-.908c-4.732 2.184-9.496 3.268-14.301 3.268v2c5.116 0 10.165-1.156 15.14-3.452zm-14.721 3.36v-1c-7.991 0-13.789-2.113-17.59-6.164l-.729.684-.73.684c4.305 4.589 10.721 6.796 19.049 6.796zm-18.319-6.48.737-.675c-3.783-4.136-5.737-9.972-5.737-17.645h-2c0 8.007 2.045 14.384 6.262 18.995zm-6-18.32h1v-61.28h-2v61.28zm0-61.28v1h13.44v-2h-13.44zm151.457 3.68-.634.774.005.003zm9.68 15.36-.958.286v.002zm-.64 45.76-.941-.339-.001.005zm-10.72 15.6-.619-.785zm-40.4-4.08.758-.652-1.758-2.043v2.695zm0 40.16.124.992.876-.109v-.883zm-13.44 1.68h-1v1.133l1.124-.141zm0-118.16v-1h-1v1zm11.44 0 .995-.095-.086-.905h-.909zm1.12 11.76-.995.095.253 2.659 1.555-2.172zm11.04-10-.477-.879-.005.003zm-1.44 11.52.619.785.001-.001zm-8.72 9.28-.83-.558-.17.253v.305zm0 41.76h-1v.305l.17.253zm8.24 7.76-.502.865.008.005.008.004zm26.8-5.2-.835-.551zm3.2-43.2-.962.272v.003zm-6.32-10.96-.656.755.009.007zm-7.68-14.48v1c7.307 0 13.007 1.773 17.206 5.214l.634-.774.634-.774c-4.654-3.812-10.848-5.666-18.474-5.666zm17.84 5.44-.629.777c4.294 3.477 7.423 8.41 9.351 14.869l.958-.286.958-.286c-2.019-6.768-5.343-12.074-10.009-15.851zm9.68 15.36-.958.288c1.939 6.444 2.918 14.023 2.918 22.752h2c0-8.871-.994-16.652-3.002-23.328zm2.96 23.04h-1c0 8.387-1.187 15.842-3.541 22.381l.941.339.941.339c2.446-6.795 3.659-14.486 3.659-23.059zm-3.6 22.72-.942-.334c-2.294 6.462-5.766 11.495-10.397 15.149l.619.785.619.785c4.969-3.92 8.643-9.286 11.043-16.051zm-10.72 15.6-.619-.785c-4.591 3.622-10.414 5.465-17.541 5.465v2c7.486 0 13.77-1.943 18.779-5.895zm-18.16 5.68v-1c-8.96 0-16.088-3.144-21.482-9.412l-.758.652-.758.652c5.806 6.746 13.505 10.108 22.998 10.108zm-22.24-9.76h-1v40.16h2v-40.16zm0 40.16-.124-.992-13.44 1.68.124.992.124.992 13.44-1.68zm-13.44 1.68h1V388.76h-2v118.16zm0-118.16v1h11.44v-2h-11.44zm11.44 0-.995.095 1.12 11.76.995-.095.995-.095-1.12-11.76zm1.12 11.76.813.582c3.014-4.21 6.585-7.438 10.709-9.706l-.482-.876-.482-.876c-4.409 2.425-8.199 5.864-11.371 10.294zm11.04-10 .477.879c4.169-2.265 8.698-3.399 13.603-3.399v-2c-5.228 0-10.086 1.213-14.557 3.641zm10.88 7.28v-1c-4.861 0-9.187 1.487-12.94 4.456l.62.784.62.784c3.394-2.684 7.281-4.024 11.7-4.024zm-12.32 4.24-.619-.785c-3.594 2.832-6.575 6-8.931 9.507l.83.558.83.558c2.23-3.32 5.063-6.338 8.509-9.053zm-8.72 9.28h-1v41.76h2v-41.76zm0 41.76-.83.558c2.269 3.376 5.127 6.069 8.568 8.067l.502-.865.502-.865c-3.172-1.842-5.808-4.322-7.912-7.453zm8.24 7.76-.486.874c3.515 1.953 7.363 2.926 11.526 2.926v-2c-3.837 0-7.349-.893-10.554-2.674zm11.04 2.8v1c7.286 0 12.87-2.806 16.595-8.449l-.835-.551-.835-.551c-3.315 5.023-8.237 7.551-14.925 7.551zm15.76-8 .835.551c3.682-5.58 5.445-14.112 5.445-25.431h-2c0 11.188-1.757 19.242-5.115 24.329zm5.28-24.88h1c0-7.415-.698-13.621-2.118-18.595l-.962.275-.962.275c1.353 4.733 2.042 10.74 2.042 18.045zm-2.08-18.32.962-.272c-1.421-5.028-3.61-8.882-6.635-11.45l-.647.762-.647.762c2.628 2.232 4.652 5.685 6.005 10.47zm-6.32-10.96.655-.755c-3.04-2.639-6.914-3.925-11.535-3.925v2c4.232 0 7.612 1.168 10.225 3.435zm117.458 67.28.554.832.776-.517-.462-.81zm-10.48 4.48-.252-.968zm-33.04-5.52.695-.719zm-7.36-68.56h1v-1h-1zm-19.36 0h-1v1h1zm0-10.4v-1h-1v1zm19.36 0v1h1v-1zm0-19.12-.119-.993-.881.105v.888zm13.44-1.6h1v-1.126l-1.119.133zm0 20.72h-1v1h1zm29.12 0 .988.152.177-1.152h-1.165zm-1.6 10.4v1h.857l.131-.848zm-27.52 0v-1h-1v1zm3.68 60.8-.708.707.008.008zm21.12 2.56.269.963zm7.44-2.88.868-.495-.473-.831-.851.436zm5.2 9.12-.555-.832c-2.769 1.846-6.155 3.299-10.177 4.344l.252.968.251.968c4.191-1.089 7.792-2.622 10.783-4.616zm-10.48 4.48-.252-.968q-6.046 1.57-11.828 1.568v2q6.056-.001 12.331-1.632zm-12.08 1.6v-1c-8.895 0-15.6-2.325-20.265-6.839l-.695.719-.696.719c5.148 4.98 12.417 7.401 21.656 7.401zm-20.96-7.12.695-.719c-4.693-4.539-7.055-10.377-7.055-17.601h-2c0 7.71 2.543 14.085 7.664 19.039zm-7.36-18.32h1v-50.24h-2v50.24zm0-50.24v-1h-19.36v2h19.36zm-19.36 0h1v-10.4h-2v10.4zm0-10.4v1h19.36v-2h-19.36zm19.36 0h1v-19.12h-2v19.12zm0-19.12.118.993 13.44-1.6-.118-.993-.119-.993-13.44 1.6zm13.44-1.6h-1v20.72h2v-20.72zm0 20.72v1h29.12v-2h-29.12zm29.12 0-.989-.152-1.6 10.4.989.152.988.152 1.6-10.4zm-1.6 10.4v-1h-27.52v2h27.52zm-27.52 0h-1v50.08h2v-50.08zm0 50.08h-1c0 4.862 1.273 8.728 3.972 11.427l.708-.707.707-.707c-2.208-2.207-3.387-5.489-3.387-10.013zm3.68 10.72-.7.715c2.783 2.723 7.237 3.965 13.1 3.965v-2c-5.658 0-9.47-1.212-11.701-3.395zm12.4 3.68v1q4.84.002 8.989-1.157l-.269-.963-.27-.963c-2.568.719-5.383 1.083-8.45 1.083zm8.72-1.12.269.963q4.09-1.144 7.626-2.953l-.455-.89-.456-.89q-3.344 1.712-7.254 2.807zm7.44-2.88-.869.495 5.2 9.12.869-.495.868-.495-5.2-9.12zm96.257 2.32.81-.587zm5.2 3.44.945.328.337-.97-.979-.311zm-3.28 9.44-.131.991.808.107.268-.77zm-9.52-3.44-.566.825.011.007zm-5.92-8.4.95-.312-.585-1.78-1.153 1.477zm-11.36 8.88.399.917.009-.004zm-34.96-4.16.699-.715zm2.88-38.88-.565-.825zm41.76-6.96v1h1v-1zm-5.36-19.92-.588.809.007.005.007.005zm-24.48-2.8.169.986.014-.003zm-12.16 3.28-.945.327.33.951.948-.335zm-3.52-10.16-.348-.938-.917.341.32.924zm51.12 2.08-.684.729.007.007zm-14.96 67.12.481.877.01-.006zm9.36-8.8.836.549.164-.25v-.299zm0-21.68h1v-1h-1zm-31.84 4.8-.64-.768-.005.004zm-1.68 24.8-.714.7.007.007.007.007zm47.04-6h-1c0 3.429.564 6.142 1.87 7.947l.81-.587.81-.587c-.934-1.289-1.49-3.482-1.49-6.773zm1.68 7.36-.81.587c1.278 1.764 3.216 3.013 5.707 3.806l.303-.953.303-.953c-2.202-.701-3.731-1.744-4.693-3.074zm5.2 3.44-.945-.328-3.28 9.44.945.328.945.328 3.28-9.44zm-3.28 9.44.131-.991c-3.493-.463-6.518-1.562-9.096-3.281l-.555.832-.555.832c2.862 1.908 6.184 3.102 9.944 3.599zm-9.52-3.44.566-.825c-2.507-1.72-4.364-4.321-5.536-7.887l-.95.312-.95.312c1.282 3.901 3.371 6.899 6.304 8.913zm-5.92-8.4-.788-.615c-2.939 3.763-6.595 6.622-10.98 8.582l.408.913.408.913c4.682-2.093 8.599-5.155 11.74-9.178zm-11.36 8.88-.399-.917c-4.394 1.913-9.27 2.877-14.641 2.877v2c5.615 0 10.767-1.009 15.439-3.043zm-15.04 2.96v-1c-8.232 0-14.597-2.313-19.221-6.835l-.699.715-.699.715c5.083 4.971 11.998 7.405 20.619 7.405zm-19.92-7.12.699-.715c-4.631-4.529-6.979-10.549-6.979-18.165h-2c0 8.064 2.505 14.631 7.581 19.595zm-7.28-18.88h1c0-8.386 3.242-14.734 9.725-19.175l-.565-.825-.565-.825c-7.064 4.839-10.595 11.825-10.595 20.825zm10.16-20 .565.825c6.538-4.479 16.092-6.785 28.795-6.785v-2c-12.897 0-22.916 2.334-29.925 7.135zm29.36-6.96v1h12.4v-2h-12.4zm12.4 0h1v-7.04h-2v7.04zm0-7.04h1c0-6.268-1.849-10.937-5.786-13.699l-.574.819-.574.819c3.21 2.252 4.934 6.169 4.934 12.061zm-5.36-12.88.588-.809c-3.752-2.728-8.894-4.031-15.308-4.031v2c6.173 0 10.844 1.257 14.132 3.649zm-14.72-3.84v-1c-2.852 0-6.169.356-9.943 1.057l.183.983.183.983c3.693-.686 6.883-1.023 9.577-1.023zm-9.76 1.04-.169-.986q-5.7.98-12.324 3.323l.333.943.333.943q6.497-2.296 11.996-3.237zm-12.16 3.28.945-.327-3.52-10.16-.945.327-.945.327 3.52 10.16zm-3.52-10.16.348.938q7.691-2.854 14.386-4.033l-.174-.985-.174-.985q-6.905 1.22-14.734 4.127zm14.56-4.08.174.985q6.724-1.186 12.786-1.185v-2q-6.257 0-13.134 1.215zm12.96-1.2v1c10.369 0 17.945 2.423 22.916 7.089l.684-.729.684-.729c-5.482-5.147-13.64-7.631-24.284-7.631zm23.6 7.36-.677.736c5.039 4.632 7.597 10.959 7.597 19.104h2c0-8.602-2.722-15.501-8.243-20.576zm7.92 19.84h-1v40.4h2v-40.4zm-34.8 50.4v1c4.335 0 8.473-1.086 12.401-3.244l-.481-.876-.481-.876c-3.645 2.002-7.454 2.996-11.439 2.996zm11.92-3.12.491.871c3.929-2.214 7.166-5.259 9.705-9.122l-.836-.549-.836-.549c-2.368 3.604-5.371 6.425-9.015 8.478zm9.36-8.8h1V431h-2v21.68zm0-21.68v-1h-12.16v2h12.16zm-12.16 0v-1c-9.338 0-16.2 1.599-20.32 5.032l.64.768.64.768c3.56-2.967 9.818-4.568 19.04-4.568zm-19.68 4.8-.645-.764c-4.033 3.408-6.035 7.992-6.035 13.644h2c0-5.121 1.785-9.124 5.325-12.116zm-5.68 12.88h-1c0 5.389 1.377 9.653 4.286 12.62l.714-.7.714-.7c-2.424-2.473-3.714-6.156-3.714-11.22zm4 11.92-.7.714c2.974 2.916 7.351 4.286 12.94 4.286v-2c-5.291 0-9.074-1.297-11.54-3.714z" mask="url(#b)"/></svg></svg></g><defs><clipPath id="a"><rect width="1000" height="1000" rx="500" ry="500"/></clipPath></defs></svg></svg>